<?xml version="1.0" encoding="utf-8"?>
<!-- Generator: Adobe Illustrator 23.0.5, SVG Export Plug-In . SVG Version: 6.00 Build 0)  -->
<svg version="1.1" id="Capa_1" xmlns="http://www.w3.org/2000/svg" xmlns:xlink="http://www.w3.org/1999/xlink" x="0px" y="0px"
	 viewBox="0 0 1366 768" style="enable-background:new 0 0 1366 768;" xml:space="preserve">
<style type="text/css">
	.st0{fill:url(#SVGID_1_);}
	.st1{fill:url(#SVGID_2_);}
	.st2{fill:url(#SVGID_3_);}
	.st3{fill:url(#SVGID_4_);}
	.st4{fill:url(#SVGID_5_);}
	.st5{fill:url(#SVGID_6_);}
	.st6{fill:url(#SVGID_7_);}
	.st7{fill:url(#SVGID_8_);}
	.st8{fill:url(#SVGID_9_);}
	.st9{fill:url(#SVGID_10_);}
	.st10{fill:url(#SVGID_11_);}
	.st11{fill:#E91E63;}
	.st12{font-family:'MyriadPro-Regular';}
	.st13{font-size:100px;}
	.st14{fill:none;}
	.st15{fill:#A6DE57;}
	.st16{fill:#DFE882;}
	.st17{fill:#CED630;}
	.st18{fill:#FFE782;}
	.st19{fill:#A8E059;}
	.st20{fill:#92D930;}
	.st21{fill:#FFDF58;}
	.st22{fill:#ADEBF3;}
	.st23{fill:#84E0ED;}
	.st24{fill:#F1EFF0;}
	.st25{fill:#EAE7E8;}
	.st26{fill:#8D7F85;}
	.st27{fill:#FDB570;}
	.st28{fill:#FCA34C;}
</style>
<linearGradient id="SVGID_1_" gradientUnits="userSpaceOnUse" x1="351.3411" y1="596.2189" x2="244.5414" y2="596.2189" gradientTransform="matrix(-1.0039 0 0 -1.0039 361.4427 773.016)">
	<stop  offset="0" style="stop-color:#ECF7FF"/>
	<stop  offset="0.2926" style="stop-color:#E6F4FF"/>
	<stop  offset="0.6915" style="stop-color:#D4EAFF"/>
	<stop  offset="1" style="stop-color:#C2E0FF"/>
</linearGradient>
<path class="st0" d="M81.12,325.04c16.12,0,31.35-6.33,42.9-17.84c11.59-11.55,17.98-26.82,17.98-43c0-10.28-2.63-20.32-7.47-29.19
	c-5.88-10.75-8.88-22.83-8.88-35.07V68.36c0-24.53-19.96-44.49-44.49-44.49c-0.41,0-0.82,0.01-1.24,0.02
	c-23.84,0.65-43.25,20.78-43.25,44.85v131.19c0,12.25-3.01,24.33-8.88,35.08c-4.85,8.87-7.47,18.9-7.47,29.19
	c0,15.9,6.1,30.95,17.17,42.36c11.04,11.39,25.85,17.94,41.69,18.45C79.82,325.03,80.47,325.04,81.12,325.04z"/>
<linearGradient id="SVGID_2_" gradientUnits="userSpaceOnUse" x1="130.2244" y1="595.5413" x2="57.5924" y2="595.5413" gradientTransform="matrix(1 0 0 -1 1.983643e-04 770)">
	<stop  offset="0" style="stop-color:#ECF7FF"/>
	<stop  offset="0.2926" style="stop-color:#E6F4FF"/>
	<stop  offset="0.6915" style="stop-color:#D4EAFF"/>
	<stop  offset="1" style="stop-color:#C2E0FF"/>
</linearGradient>
<path class="st1" d="M81.19,305.42c-10.89,0-21.21-4.3-29.05-12.12c-7.87-7.84-12.2-18.17-12.2-29.1c0-11.57,4.91-22.68,13.48-30.48
	c1.83-1.66,2.87-4.07,2.87-6.61V68.36c0-13.71,11.15-24.86,24.86-24.86c0.23,0,0.46,0,0.69,0.01c13.33,0.37,24.17,11.68,24.17,25.23
	V227.1c0,2.55,1.01,4.93,2.78,6.53c8.63,7.8,13.57,18.94,13.57,30.57c0,10.77-4.13,20.96-11.63,28.7
	c-7.48,7.71-17.51,12.15-28.23,12.5C82.07,305.41,81.63,305.42,81.19,305.42z"/>
<linearGradient id="SVGID_3_" gradientUnits="userSpaceOnUse" x1="97.5126" y1="595.5416" x2="56.2128" y2="595.5416" gradientTransform="matrix(1 0 0 -1 1.983643e-04 770)">
	<stop  offset="0" style="stop-color:#3B395F"/>
	<stop  offset="0.0633" style="stop-color:#37355A"/>
	<stop  offset="0.4033" style="stop-color:#232543"/>
	<stop  offset="0.7232" style="stop-color:#171B35"/>
	<stop  offset="1" style="stop-color:#131830"/>
</linearGradient>
<path class="st2" d="M99.48,227.1V68.74c0-9.98-7.83-18.42-17.81-18.69c-10.35-0.28-18.83,8.02-18.83,18.31v158.75
	c0,4.35-1.8,8.52-5.02,11.45c-6.97,6.34-11.34,15.48-11.34,25.64c0,19.37,16.45,35.28,35.82,34.66
	c18.62-0.6,33.53-15.89,33.53-34.66c0-10.2-4.41-19.37-11.42-25.71C101.21,235.59,99.48,231.42,99.48,227.1z"/>
<linearGradient id="SVGID_4_" gradientUnits="userSpaceOnUse" x1="109.2894" y1="698.8011" x2="123.2458" y2="698.8011" gradientTransform="matrix(1 0 0 -1 1.983643e-04 770)">
	<stop  offset="0" style="stop-color:#3B395F"/>
	<stop  offset="0.0633" style="stop-color:#37355A"/>
	<stop  offset="0.4033" style="stop-color:#232543"/>
	<stop  offset="0.7232" style="stop-color:#171B35"/>
	<stop  offset="1" style="stop-color:#131830"/>
</linearGradient>
<path class="st3" d="M120.63,73.82h-8.72c-1.45,0-2.62-1.17-2.62-2.62s1.17-2.62,2.62-2.62h8.72c1.45,0,2.62,1.17,2.62,2.62
	S122.07,73.82,120.63,73.82z"/>
<linearGradient id="SVGID_5_" gradientUnits="userSpaceOnUse" x1="109.2894" y1="669.142" x2="123.2458" y2="669.142" gradientTransform="matrix(1 0 0 -1 1.983643e-04 770)">
	<stop  offset="0" style="stop-color:#3B395F"/>
	<stop  offset="0.0633" style="stop-color:#37355A"/>
	<stop  offset="0.4033" style="stop-color:#232543"/>
	<stop  offset="0.7232" style="stop-color:#171B35"/>
	<stop  offset="1" style="stop-color:#131830"/>
</linearGradient>
<path class="st4" d="M120.63,103.48h-8.72c-1.45,0-2.62-1.17-2.62-2.62c0-1.45,1.17-2.62,2.62-2.62h8.72c1.45,0,2.62,1.17,2.62,2.62
	C123.25,102.3,122.07,103.48,120.63,103.48z"/>
<linearGradient id="SVGID_6_" gradientUnits="userSpaceOnUse" x1="109.2894" y1="639.483" x2="123.2458" y2="639.483" gradientTransform="matrix(1 0 0 -1 1.983643e-04 770)">
	<stop  offset="0" style="stop-color:#3B395F"/>
	<stop  offset="0.0633" style="stop-color:#37355A"/>
	<stop  offset="0.4033" style="stop-color:#232543"/>
	<stop  offset="0.7232" style="stop-color:#171B35"/>
	<stop  offset="1" style="stop-color:#131830"/>
</linearGradient>
<path class="st5" d="M120.63,133.13h-8.72c-1.45,0-2.62-1.17-2.62-2.62s1.17-2.62,2.62-2.62h8.72c1.45,0,2.62,1.17,2.62,2.62
	S122.07,133.13,120.63,133.13z"/>
<linearGradient id="SVGID_7_" gradientUnits="userSpaceOnUse" x1="109.2894" y1="609.824" x2="123.2458" y2="609.824" gradientTransform="matrix(1 0 0 -1 1.983643e-04 770)">
	<stop  offset="0" style="stop-color:#3B395F"/>
	<stop  offset="0.0633" style="stop-color:#37355A"/>
	<stop  offset="0.4033" style="stop-color:#232543"/>
	<stop  offset="0.7232" style="stop-color:#171B35"/>
	<stop  offset="1" style="stop-color:#131830"/>
</linearGradient>
<path class="st6" d="M120.63,162.79h-8.72c-1.45,0-2.62-1.17-2.62-2.62s1.17-2.62,2.62-2.62h8.72c1.45,0,2.62,1.17,2.62,2.62
	S122.07,162.79,120.63,162.79z"/>
<linearGradient id="SVGID_8_" gradientUnits="userSpaceOnUse" x1="109.2894" y1="580.1649" x2="123.2458" y2="580.1649" gradientTransform="matrix(1 0 0 -1 1.983643e-04 770)">
	<stop  offset="0" style="stop-color:#3B395F"/>
	<stop  offset="0.0633" style="stop-color:#37355A"/>
	<stop  offset="0.4033" style="stop-color:#232543"/>
	<stop  offset="0.7232" style="stop-color:#171B35"/>
	<stop  offset="1" style="stop-color:#131830"/>
</linearGradient>
<path class="st7" d="M120.63,192.45h-8.72c-1.45,0-2.62-1.17-2.62-2.62c0-1.45,1.17-2.62,2.62-2.62h8.72c1.45,0,2.62,1.17,2.62,2.62
	C123.25,191.28,122.07,192.45,120.63,192.45z"/>
<linearGradient id="SVGID_9_" gradientUnits="userSpaceOnUse" x1="109.2894" y1="550.5082" x2="123.2458" y2="550.5082" gradientTransform="matrix(1 0 0 -1 1.983643e-04 770)">
	<stop  offset="0" style="stop-color:#3B395F"/>
	<stop  offset="0.0633" style="stop-color:#37355A"/>
	<stop  offset="0.4033" style="stop-color:#232543"/>
	<stop  offset="0.7232" style="stop-color:#171B35"/>
	<stop  offset="1" style="stop-color:#131830"/>
</linearGradient>
<path class="st8" d="M120.63,222.11h-8.72c-1.45,0-2.62-1.17-2.62-2.62c0-1.45,1.17-2.62,2.62-2.62h8.72c1.45,0,2.62,1.17,2.62,2.62
	C123.25,220.94,122.07,222.11,120.63,222.11z"/>
<radialGradient id="SVGID_10_" cx="-2.5854" cy="562.1053" r="138.9233" gradientTransform="matrix(1 0 0 -1 1.983643e-04 770)" gradientUnits="userSpaceOnUse">
	<stop  offset="0" style="stop-color:#FF6E3A"/>
	<stop  offset="0.2336" style="stop-color:#FF6B3C"/>
	<stop  offset="0.418" style="stop-color:#FF6143"/>
	<stop  offset="0.5857" style="stop-color:#FF504E"/>
	<stop  offset="0.7434" style="stop-color:#FF395E"/>
	<stop  offset="0.8928" style="stop-color:#FF1B72"/>
	<stop  offset="1" style="stop-color:#FF0084"/>
</radialGradient>
<path class="st9" d="M99.48,227.1v-29.42c0-9.98-7.83-18.42-17.81-18.69c-10.35-0.28-18.83,8.02-18.83,18.31v29.8
	c0,4.35-1.8,8.52-5.02,11.45c-6.97,6.34-11.34,15.48-11.34,25.64c0,19.37,16.45,35.28,35.82,34.66
	c18.62-0.6,33.53-15.89,33.53-34.66c0-10.2-4.41-19.37-11.42-25.71C101.21,235.59,99.48,231.42,99.48,227.1z"/>
<linearGradient id="SVGID_11_" gradientUnits="userSpaceOnUse" x1="56.0094" y1="553.2947" x2="112.9279" y2="495.0677" gradientTransform="matrix(1 0 0 -1 1.983643e-04 770)">
	<stop  offset="0" style="stop-color:#FF4974"/>
	<stop  offset="0.3262" style="stop-color:#FE4672"/>
	<stop  offset="0.5324" style="stop-color:#FB3E6C"/>
	<stop  offset="0.7054" style="stop-color:#F52F60"/>
	<stop  offset="0.8591" style="stop-color:#EE1A51"/>
	<stop  offset="1" style="stop-color:#E4003D"/>
</linearGradient>
<path class="st10" d="M99.48,227.1v-29.42c0-9.98-7.83-18.42-17.81-18.69c-10.35-0.28-18.83,8.02-18.83,18.31v29.8
	c0,4.35-1.8,8.52-5.02,11.45c-6.97,6.34-11.34,15.48-11.34,25.64c0,19.37,16.45,35.28,35.82,34.66
	c18.62-0.6,33.53-15.89,33.53-34.66c0-10.2-4.41-19.37-11.42-25.71C101.21,235.59,99.48,231.42,99.48,227.1z"/>
<text transform="matrix(1 0 0 1 182.25 192.5)" class="st11 st12 st13">31°</text>
<rect x="267.5" y="196" class="st14" width="7.5" height="3.75"/>
<text transform="matrix(1 0 0 1 423.5 372.5)" class="st15 st12 st13">Cuartel 1</text>
<g id="surface1">
	<path class="st16" d="M725.19,174.71L606.07,82.5c-1.39-1.07-3.32-1.07-4.71,0l-119.11,92.21c-1.95,1.51-1.95,4.56,0,6.08
		L601.37,273c1.37,1.06,3.34,1.06,4.71,0l119.11-92.22C727.14,179.28,727.14,176.23,725.19,174.71z"/>
	<path class="st17" d="M493.76,180.79c-1.95-1.51-1.95-4.56,0-6.08l115.71-89.58l-3.4-2.63c-1.38-1.07-3.32-1.07-4.7,0
		l-119.11,92.21c-1.95,1.51-1.95,4.56,0,6.08L601.37,273c1.37,1.06,3.34,1.06,4.7,0l3.4-2.63L493.76,180.79z"/>
	<path class="st18" d="M664.81,127.97L606.07,82.5c-1.39-1.07-3.32-1.07-4.71,0l-58.54,45.32l61.24,44.91L664.81,127.97z"/>
	<path class="st19" d="M597.58,177.5l-61.08-44.79l-54.25,42c-1.95,1.51-1.95,4.56,0,6.08l57.78,44.73l-3.72-2.88L597.58,177.5z"/>
	<path class="st19" d="M725.19,174.71l-57.22-44.3l3.16,2.45l-60.57,44.63l61.06,44.78l53.57-41.47
		C727.14,179.28,727.14,176.23,725.19,174.71z"/>
	<path class="st19" d="M542.63,227.53L601.37,273c1.37,1.06,3.34,1.06,4.71,0l59.22-45.85l-61.22-44.89L542.63,227.53z"/>
	<path class="st16" d="M542.83,127.82l-6.32,4.89L542.83,127.82z"/>
	<path class="st16" d="M542.63,227.53l-2.6-2.01L542.63,227.53z"/>
	<path class="st16" d="M664.81,127.97l3.16,2.44L664.81,127.97z"/>
	<path class="st20" d="M548.53,223.19l-5.89,4.34L601.37,273c1.37,1.06,3.34,1.06,4.71,0l3.4-2.63L548.53,223.19z"/>
	<path class="st20" d="M542.21,218.3l-48.45-37.51c-1.95-1.51-1.95-4.56,0-6.08l48.65-37.67l-5.91-4.33l-54.25,42
		c-1.95,1.51-1.95,4.56,0,6.08l57.78,44.73l-3.72-2.88L542.21,218.3z"/>
	<path class="st21" d="M609.47,85.13l-3.4-2.63c-1.39-1.07-3.32-1.07-4.71,0l-58.54,45.32l5.91,4.33L609.47,85.13z"/>
	<path class="st22" d="M603.72,27.9c-27.54,0-49.95,22.41-49.95,49.95c0,11.47,8.05,27.14,23.92,46.56
		c11.55,14.13,22.91,24.93,23.39,25.39c1.46,1.39,3.82,1.39,5.29,0c0.48-0.45,11.84-11.26,23.39-25.39
		c15.87-19.43,23.92-35.09,23.92-46.56C653.67,50.31,631.26,27.9,603.72,27.9z"/>
	<path class="st23" d="M608.76,145.97c-0.48-0.45-11.84-11.25-23.39-25.39c-15.87-19.42-23.92-35.09-23.92-46.56
		c0-18.04,9.62-33.88,23.99-42.66c-18.53,7.31-31.68,25.39-31.68,46.49c0,11.47,8.05,27.14,23.92,46.56
		c11.55,14.13,22.91,24.93,23.39,25.39c1.46,1.39,3.82,1.39,5.29,0c0.15-0.14,1.35-1.28,3.28-3.21
		C609.33,146.43,609.03,146.23,608.76,145.97z"/>
	<path class="st24" d="M603.72,43.27c-19.07,0-34.58,15.51-34.58,34.58s15.51,34.58,34.58,34.58c19.07,0,34.58-15.51,34.58-34.58
		S622.79,43.27,603.72,43.27z"/>
	<path class="st25" d="M611.41,104.75c-19.07,0-34.58-15.51-34.58-34.58c0-7.58,2.46-14.59,6.61-20.29
		c-8.65,6.29-14.29,16.49-14.29,27.98c0,19.07,15.51,34.58,34.58,34.58c11.49,0,21.68-5.64,27.98-14.29
		C625.99,102.29,618.98,104.75,611.41,104.75z"/>
	<path class="st19" d="M603.72,66.32c-0.98,0-1.97-0.38-2.72-1.13l-3.84-3.84c-1.5-1.5-1.5-3.93,0-5.43c1.5-1.5,3.93-1.5,5.43,0
		l3.84,3.84c1.5,1.5,1.5,3.93,0,5.43C605.69,65.95,604.7,66.32,603.72,66.32z"/>
	<path class="st26" d="M603.72,74c0,0-0.01,0-0.01,0c-2.12-0.01-3.83-1.72-3.83-3.83c0-5.32,2.41-15.37,11.53-15.37
		c2.12,0,3.84,1.72,3.84,3.84s-1.72,3.84-3.84,3.84c-3.63,0-3.84,7.62-3.84,7.7C607.55,72.29,605.83,74,603.72,74z"/>
	<path class="st27" d="M603.72,66.32c-8.48,0-15.37,6.89-15.37,15.37s6.89,15.37,15.37,15.37c8.47,0,15.37-6.89,15.37-15.37
		S612.2,66.32,603.72,66.32z"/>
	<path class="st28" d="M611.41,93.22c-8.47,0-15.37-6.89-15.37-15.37c0-4.45,1.9-8.47,4.94-11.28c-7.17,1.3-12.63,7.58-12.63,15.12
		c0,8.47,6.89,15.37,15.37,15.37c4.02,0,7.69-1.55,10.43-4.09C613.26,93.13,612.34,93.22,611.41,93.22z"/>
</g>
</svg>
